# xmcd
#
# Track frame offsets:
#	150
#	10269
#	19579
#	33301
#	45026
#	56713
#	68512
#	83689
#	94176
#	106613
#	118483
#	135500
#	149377
#	162161
#	175898
#	185042
#	199864
#	214031
#
# Disc length: 2965 seconds
#
# Revision: 0
# Processed by: cddbd v1.5.1PL2 Copyright (c) Steve Scherf et al.
# Submitted via: EasyCDDAExtractor 4.6.0.1
#
DISCID=ec0b9312
DTITLE=Willie Nelson - Red Headed Stranger
DYEAR=1996
DGENRE=Country
TTITLE0=Let's Pretend
TTITLE1=Right From Wrong
TTITLE2=Everything But You
TTITLE3=Some Other Time
TTITLE4=Is There Something On Your Mind
TTITLE5=I'll Stay Around
TTITLE6=And So You Will You My Love
TTITLE7=Broken Promises
TTITLE8=I Can't Find The Time
TTITLE9=I Hope So
TTITLE10=I Let My Mind Wonder
TTITLE11=No Tomorrow In Sight
TTITLE12=She's Not For You
TTITLE13=The Last Letter
TTITLE14=Waiting Time
TTITLE15=What Can You Do To Me Now
TTITLE16=Will You Remember Mine
TTITLE17=You Wouldn't Cross The Street To Say Goodbye
EXTD=
EXTT0=
EXTT1=
EXTT2=
EXTT3=
EXTT4=
EXTT5=
EXTT6=
EXTT7=
EXTT8=
EXTT9=
EXTT10=
EXTT11=
EXTT12=
EXTT13=
EXTT14=
EXTT15=
EXTT16=
EXTT17=
PLAYORDER=
